<?xml version="1.0" encoding="UTF-8" standalone="no"?>
<!-- Created with Inkscape (http://www.inkscape.org/) -->
<svg xmlns:rdf="http://www.w3.org/1999/02/22-rdf-syntax-ns#" xmlns="http://www.w3.org/2000/svg" xml:space="preserve" height="17mm" width="28mm" version="1.1" xmlns:cc="http://creativecommons.org/ns#" xmlns:dc="http://purl.org/dc/elements/1.1/" viewBox="0 0 105.82677 64.25197"><metadata><rdf:RDF><cc:Work rdf:about=""><dc:format>image/svg+xml</dc:format><dc:type rdf:resource="http://purl.org/dc/dcmitype/StillImage"/><dc:title/></cc:Work></rdf:RDF></metadata><defs><clipPath id="clipPath3715" clipPathUnits="userSpaceOnUse"><path d="m0 792h612v-792h-612z"/></clipPath></defs><g fill="#fff" transform="matrix(1.3333 0 0 -1.3333 -221.63 702.26)"><g fill="#fff"><g fill="#fff" clip-path="url(#clipPath3715)"><g transform="translate(176.79,490.76)"><path fill="#fff" d="m0 0v14.186c0 0.597-0.211 1.107-0.633 1.529s-0.932 0.633-1.529 0.633h-1.872v-18.51h1.872c0.597 0 1.107 0.211 1.529 0.633s0.633 0.931 0.633 1.529m0 19.485v12.05c0 0.597-0.211 1.108-0.633 1.529-0.422 0.422-0.932 0.633-1.529 0.633h-1.872v-16.374h1.872c0.597 0 1.107 0.211 1.529 0.633s0.633 0.932 0.633 1.529m4.324-17.112c0-1.512-0.633-2.808-1.898-3.889-1.266-1.081-2.795-1.622-4.588-1.622h-7.541v0.976h1.345v35.859h-1.345v0.976h7.541c1.793 0 3.322-0.541 4.588-1.622 1.265-1.081 1.898-2.377 1.898-3.889v-7.304c0-2.356-1.257-4.025-3.77-5.009 2.513-1.055 3.77-2.734 3.77-5.036z"/></g><g transform="translate(196.04,507.11)"><path fill="#fff" d="m0 0h-4.219v5.722c0 1.371-0.431 2.056-1.292 2.056-0.563 0-1.125-0.307-1.687-0.923v-25.365h1.371v-0.975h-6.935v0.975h1.371v26.13h-1.371v0.976h5.564v-0.765c0.791 0.686 1.783 1.028 2.979 1.028 2.812 0 4.219-1.652 4.219-4.957z"/></g><path d="m203.13 518.94h-4.219v6.486h4.219zm1.345-31.324h-6.909v0.976h1.345v26.13h-1.345v0.975h5.564v-27.105h1.345z"/><g transform="translate(214.18,489.89)"><path fill="#fff" d="m0 0v24.073c-0.616 0.615-1.266 0.923-1.951 0.923-1.038 0-1.556-0.685-1.556-2.057v-21.805c0-1.371 0.518-2.057 1.556-2.057 0.685 0 1.335 0.307 1.951 0.923m5.563 24.838h-1.344v-29.426c0-1.546-0.545-2.851-1.635-3.915s-2.505-1.596-4.245-1.596c-1.635 0-3.055 0.541-4.258 1.622-1.205 1.081-1.807 2.377-1.807 3.889v0.976h4.219v-3.349c0-1.441 0.615-2.162 1.846-2.162 1.107 0 1.661 0.721 1.661 2.162v5.985c-0.791-0.685-1.837-1.028-3.138-1.028-3.058 0-4.588 1.661-4.588 4.983v18.141c0 3.305 1.53 4.957 4.588 4.957 1.301 0 2.347-0.343 3.138-1.028v0.764h5.563z"/></g><g transform="translate(235.22,487.62)"><path fill="#fff" d="m0 0h-5.563v25.207c0 1.371-0.519 2.057-1.556 2.057-0.686 0-1.336-0.308-1.951-0.923v-25.365h1.371v-0.976h-6.935v0.976h1.371v35.859h-1.371v0.976h5.564v-10.495c0.791 0.686 1.836 1.029 3.137 1.029 3.059 0 4.588-1.653 4.588-4.957v-22.412h1.345z"/></g><g transform="translate(244.74,487.62)"><path fill="#fff" d="m0 0h-1.345c-1.758 0-3.213 0.536-4.363 1.608-1.152 1.072-1.728 2.373-1.728 3.903v21.594h-1.371v0.976h1.371v7.831l4.193 1.899v-9.73h3.032v-0.976h-3.032v-23.967c0-1.442 0.633-2.162 1.898-2.162h1.345z"/></g></g></g></g></svg>
