<svg xmlns="http://www.w3.org/2000/svg" height="17mm" width="28mm" viewBox="0 0 105.82677 64.25197"><defs><clipPath id="a"><path d="M0 792h612V0H0z"/></clipPath></defs><g clip-path="url(#a)" transform="matrix(1.3333 0 0 -1.3333 -221.63 702.26)" fill="#fff"><path d="M176.79 490.76v14.186c0 .597-.211 1.107-.633 1.529s-.932.633-1.529.633h-1.872v-18.51h1.872c.597 0 1.107.211 1.529.633s.633.931.633 1.529m0 19.485v12.05c0 .597-.211 1.108-.633 1.529a2.084 2.084 0 0 1-1.529.633h-1.872v-16.374h1.872c.597 0 1.107.211 1.529.633s.633.932.633 1.529m4.324-17.112c0-1.512-.633-2.808-1.898-3.889-1.266-1.081-2.795-1.622-4.588-1.622h-7.541v.976h1.345v35.859h-1.345v.976h7.541c1.793 0 3.322-.541 4.588-1.622 1.265-1.081 1.898-2.377 1.898-3.889v-7.304c0-2.356-1.257-4.025-3.77-5.009 2.513-1.055 3.77-2.734 3.77-5.036zm14.926 13.977h-4.219v5.722c0 1.371-.431 2.056-1.292 2.056-.563 0-1.125-.307-1.687-.923V488.6h1.371v-.975h-6.935v.975h1.371v26.13h-1.371v.976h5.564v-.765c.791.686 1.783 1.028 2.979 1.028 2.812 0 4.219-1.652 4.219-4.957zm7.09 11.83h-4.219v6.486h4.219zm1.345-31.324h-6.909v.976h1.345v26.13h-1.345v.975h5.564v-27.105h1.345zm9.705 2.274v24.073c-.616.615-1.266.923-1.951.923-1.038 0-1.556-.685-1.556-2.057v-21.805c0-1.371.518-2.057 1.556-2.057.685 0 1.335.307 1.951.923m5.563 24.838h-1.344v-29.426c0-1.546-.545-2.851-1.635-3.915s-2.505-1.596-4.245-1.596c-1.635 0-3.055.541-4.258 1.622-1.205 1.081-1.807 2.377-1.807 3.889v.976h4.219v-3.349c0-1.441.615-2.162 1.846-2.162 1.107 0 1.661.721 1.661 2.162v5.985c-.791-.685-1.837-1.028-3.138-1.028-3.058 0-4.588 1.661-4.588 4.983v18.141c0 3.305 1.53 4.957 4.588 4.957 1.301 0 2.347-.343 3.138-1.028v.764h5.563zm15.477-27.108h-5.563v25.207c0 1.371-.519 2.057-1.556 2.057-.686 0-1.336-.308-1.951-.923v-25.365h1.371v-.976h-6.935v.976h1.371v35.859h-1.371v.976h5.564v-10.495c.791.686 1.836 1.029 3.137 1.029 3.059 0 4.588-1.653 4.588-4.957v-22.412h1.345zm9.52 0h-1.345c-1.758 0-3.213.536-4.363 1.608-1.152 1.072-1.728 2.373-1.728 3.903v21.594h-1.371v.976h1.371v7.831l4.193 1.899v-9.73h3.032v-.976h-3.032v-23.967c0-1.442.633-2.162 1.898-2.162h1.345z"/></g></svg>